<svg width="430" height="120" viewBox="0 0 430 120" fill="none" xmlns="http://www.w3.org/2000/svg">
<g clip-path="url(#clip0_572_121)">
<rect width="120" height="120" rx="9" fill="#D5D7E1"/>
<rect x="150" y="80" width="10" height="10" fill="black"/>
<rect x="160" y="90" width="10" height="10" fill="black"/>
<rect x="150" y="70" width="10" height="10" fill="black"/>
<rect x="180" y="70" width="10" height="10" fill="black"/>
<rect x="180" y="60" width="10" height="10" fill="black"/>
<rect x="140" y="100" width="10" height="10" fill="black"/>
<rect x="140" y="90" width="10" height="10" fill="black"/>
<rect x="200" y="20" width="10" height="10" fill="black"/>
<rect x="200" y="10" width="10" height="10" fill="black"/>
<rect x="160" y="60" width="10" height="10" fill="black"/>
<rect x="150" y="60" width="10" height="10" fill="black"/>
<rect x="140" y="60" width="10" height="10" fill="black"/>
<rect x="180" y="80" width="10" height="10" fill="black"/>
<rect x="170" y="80" width="10" height="10" fill="black"/>
<rect x="210" y="70" width="10" height="10" fill="black"/>
<rect x="210" y="80" width="10" height="10" fill="black"/>
<rect x="200" y="80" width="10" height="10" fill="black"/>
<rect x="220" y="30" width="10" height="10" fill="black"/>
<rect x="220" y="40" width="10" height="10" fill="black"/>
<rect x="210" y="50" width="10" height="10" fill="black"/>
<rect x="210" y="30" width="10" height="10" fill="black"/>
<rect x="190" y="30" width="10" height="10" fill="black"/>
<rect x="180" y="30" width="10" height="10" fill="black"/>
<rect x="160" y="30" width="10" height="10" fill="black"/>
<rect x="150" y="30" width="10" height="10" fill="black"/>
<rect x="140" y="20" width="10" height="10" fill="black"/>
<rect x="200" y="30" width="10" height="10" fill="black"/>
<rect x="220" y="60" width="10" height="10" fill="black"/>
<rect x="210" y="60" width="10" height="10" fill="black"/>
<rect x="190" y="60" width="10" height="10" fill="black"/>
<rect x="200" y="60" width="10" height="10" fill="black"/>
<rect x="170" y="20" width="10" height="10" fill="black"/>
<rect x="170" y="10" width="10" height="10" fill="black"/>
<rect x="170" y="50" width="10" height="10" fill="black"/>
<rect x="190" y="40" width="10" height="10" fill="black"/>
<rect x="180" y="50" width="10" height="10" fill="black"/>
<rect x="170" y="40" width="10" height="10" fill="black"/>
<rect x="170" y="30" width="10" height="10" fill="black"/>
<rect x="210" y="100" width="10" height="10" fill="black"/>
<rect x="200" y="100" width="10" height="10" fill="black"/>
<rect x="180" y="100" width="10" height="10" fill="black"/>
<rect x="170" y="100" width="10" height="10" fill="black"/>
<rect x="220" y="100" width="10" height="10" fill="black"/>
<rect x="190" y="100" width="10" height="10" fill="black"/>
<rect x="350" y="20" width="10" height="10" fill="black"/>
<rect x="350" y="40" width="10" height="10" fill="black"/>
<rect x="340" y="40" width="10" height="10" fill="black"/>
<rect x="360" y="40" width="10" height="10" fill="black"/>
<rect x="350" y="90" width="10" height="10" fill="black"/>
<rect x="340" y="90" width="10" height="10" fill="black"/>
<rect x="360" y="90" width="10" height="10" fill="black"/>
<rect x="350" y="30" width="10" height="10" fill="black"/>
<rect x="350" y="70" width="10" height="10" fill="black"/>
<rect x="350" y="80" width="10" height="10" fill="black"/>
<rect x="420" y="100" width="10" height="10" fill="black"/>
<rect x="420" y="90" width="10" height="10" fill="black"/>
<rect x="350" y="60" width="10" height="10" fill="black"/>
<rect x="350" y="50" width="10" height="10" fill="black"/>
<rect x="380" y="20" width="10" height="10" fill="black"/>
<rect x="380" y="40" width="10" height="10" fill="black"/>
<rect x="380" y="30" width="10" height="10" fill="black"/>
<rect x="380" y="70" width="10" height="10" fill="black"/>
<rect x="380" y="60" width="10" height="10" fill="black"/>
<rect x="380" y="50" width="10" height="10" fill="black"/>
<rect x="410" y="80" width="10" height="10" fill="black"/>
<rect x="400" y="80" width="10" height="10" fill="black"/>
<rect x="380" y="80" width="10" height="10" fill="black"/>
<rect x="380" y="90" width="10" height="10" fill="black"/>
<rect x="370" y="100" width="10" height="10" fill="black"/>
<rect x="400" y="90" width="10" height="10" fill="black"/>
<rect x="390" y="100" width="10" height="10" fill="black"/>
<rect x="410" y="100" width="10" height="10" fill="black"/>
<rect x="370" y="80" width="10" height="10" fill="black"/>
<rect x="420" y="80" width="10" height="10" fill="black"/>
<rect x="390" y="80" width="10" height="10" fill="black"/>
<rect x="410" y="60" width="10" height="10" fill="black"/>
<rect x="400" y="60" width="10" height="10" fill="black"/>
<rect x="420" y="60" width="10" height="10" fill="black"/>
<rect x="390" y="60" width="10" height="10" fill="black"/>
<rect x="410" y="40" width="10" height="10" fill="black"/>
<rect x="400" y="40" width="10" height="10" fill="black"/>
<rect x="400" y="20" width="10" height="10" fill="black"/>
<rect x="410" y="50" width="10" height="10" fill="black"/>
<rect x="410" y="30" width="10" height="10" fill="black"/>
<rect x="390" y="20" width="10" height="10" fill="black"/>
<rect x="410" y="20" width="10" height="10" fill="black"/>
<rect x="390" y="40" width="10" height="10" fill="black"/>
<rect x="290" y="20" width="10" height="10" fill="black"/>
<rect x="300" y="30" width="10" height="10" fill="black"/>
<rect x="300" y="70" width="10" height="10" fill="black"/>
<rect x="310" y="60" width="10" height="10" fill="black"/>
<rect x="320" y="70" width="10" height="10" fill="black"/>
<rect x="300" y="50" width="10" height="10" fill="black"/>
<rect x="300" y="60" width="10" height="10" fill="black"/>
<rect x="250" y="80" width="10" height="10" fill="black"/>
<rect x="250" y="70" width="10" height="10" fill="black"/>
<rect x="290" y="90" width="10" height="10" fill="black"/>
<rect x="280" y="100" width="10" height="10" fill="black"/>
<rect x="270" y="100" width="10" height="10" fill="black"/>
<rect x="260" y="100" width="10" height="10" fill="black"/>
<rect x="260" y="30" width="10" height="10" fill="black"/>
<rect x="250" y="30" width="10" height="10" fill="black"/>
<rect x="240" y="30" width="10" height="10" fill="black"/>
<rect x="250" y="90" width="10" height="10" fill="black"/>
<rect x="260" y="60" width="10" height="10" fill="black"/>
<rect x="260" y="50" width="10" height="10" fill="black"/>
<rect x="300" y="80" width="10" height="10" fill="black"/>
<rect x="270" y="40" width="10" height="10" fill="black"/>
<rect x="270" y="30" width="10" height="10" fill="black"/>
<rect x="310" y="10" width="10" height="10" fill="black"/>
<rect x="320" y="20" width="10" height="10" fill="black"/>
<rect x="45" y="40" width="10" height="10" fill="#FCCF25"/>
<rect x="55" y="40" width="10" height="10" fill="#4B4949"/>
<rect x="45" y="50" width="10" height="10" fill="white"/>
<rect x="55" y="50" width="10" height="10" fill="#4B4949"/>
<rect x="65" y="40" width="10" height="10" fill="#FCCF25"/>
<rect x="65" y="50" width="10" height="10" fill="white"/>
<rect x="35" y="70" width="10" height="10" fill="#D4A015"/>
<rect x="25" y="60" width="10" height="10" fill="#D4A015"/>
<rect x="35" y="60" width="10" height="10" fill="#D4A015"/>
<rect x="75" y="60" width="10" height="10" fill="#D4A015"/>
<rect x="85" y="60" width="10" height="10" fill="#D4A015"/>
<rect x="75" y="70" width="10" height="10" fill="#D4A015"/>
<rect x="45" y="60" width="10" height="10" fill="#D4A015"/>
<rect x="55" y="60" width="10" height="10" fill="#D4A015"/>
<rect x="65" y="60" width="10" height="10" fill="#D4A015"/>
</g>
<defs>
<clipPath id="clip0_572_121">
<rect width="430" height="120" fill="white"/>
</clipPath>
</defs>
</svg>
