<?xml version="1.0" standalone="no"?>
<!DOCTYPE svg PUBLIC "-//W3C//DTD SVG 20010904//EN"
 "http://www.w3.org/TR/2001/REC-SVG-20010904/DTD/svg10.dtd">
<svg version="1.0" xmlns="http://www.w3.org/2000/svg"
 width="700.000000pt" height="700.000000pt" viewBox="0 0 700.000000 700.000000"
 preserveAspectRatio="xMidYMid meet">
<metadata>
Created by potrace 1.14, written by Peter Selinger 2001-2017
</metadata>
<g transform="translate(0.000000,700.000000) scale(0.100000,-0.100000)"
fill="#000000" stroke="none">
<path d="M3210 3795 l0 -875 290 0 290 0 0 875 0 875 -290 0 -290 0 0 -875z"/>
<path d="M1460 3210 l0 -290 290 0 290 0 0 290 0 290 -290 0 -290 0 0 -290z"/>
<path d="M2050 3210 l0 -290 285 0 285 0 0 290 0 290 -285 0 -285 0 0 -290z"/>
<path d="M2630 3210 l0 -290 285 0 285 0 0 290 0 290 -285 0 -285 0 0 -290z"/>
<path d="M3800 3210 l0 -290 285 0 285 0 0 290 0 290 -285 0 -285 0 0 -290z"/>
<path d="M4380 3210 l0 -290 285 0 285 0 0 290 0 290 -285 0 -285 0 0 -290z"/>
<path d="M4960 3210 l0 -290 290 0 290 0 0 290 0 290 -290 0 -290 0 0 -290z"/>
<path d="M2050 2625 l0 -285 285 0 285 0 0 285 0 285 -285 0 -285 0 0 -285z"/>
<path d="M4380 2625 l0 -285 285 0 285 0 0 285 0 285 -285 0 -285 0 0 -285z"/>
</g>
</svg>
